<?xml version="1.0" encoding="utf-8"?>
<!-- Generator: Adobe Illustrator 19.0.0, SVG Export Plug-In . SVG Version: 6.00 Build 0)  -->
<svg version="1.1" id="Layer_1" xmlns="http://www.w3.org/2000/svg" xmlns:xlink="http://www.w3.org/1999/xlink" x="0px" y="0px"
	 viewBox="0 0 200 200" style="enable-background:new 0 0 200 200;" xml:space="preserve">
<style type="text/css">
	.st0{fill:#3481C3;}
</style>
<path id="XMLID_71_" class="st0" d="M104.4,14.9l19.1,59.3l62.3-0.1c2.6,0,4.7,2.1,4.7,4.7c0,1.5-0.8,2.9-1.9,3.8l0,0l-50.5,36.5
	l19.4,59.3c0.8,2.5-0.5,5.1-3,5.9c-1.6,0.5-3.3,0.1-4.5-0.9l-50-36.5l-50.3,36.7c-2.1,1.5-5.1,1.1-6.5-1c-0.9-1.3-1.1-2.9-0.7-4.2
	h-0.1l19.4-59.3L11.3,82.6C9.2,81,8.7,78.1,10.3,76c1-1.4,2.5-2.1,4.1-1.9l62,0.1l19.2-59.3c0.8-2.5,3.4-3.8,5.9-3.1
	C102.9,12.4,104,13.5,104.4,14.9L104.4,14.9z M115.7,80.3L100,31.6L84.2,80.3l0,0c-0.6,1.9-2.4,3.3-4.5,3.3l-51.2-0.1l41.5,30l0,0
	c1.6,1.2,2.3,3.3,1.7,5.3l-15.9,48.7l41.3-30.1c1.6-1.2,3.9-1.3,5.6-0.1l41.4,30.2L128.2,119c-0.7-1.9-0.1-4.2,1.6-5.5l41.6-30
	l-51.1,0.1C118.3,83.7,116.3,82.4,115.7,80.3L115.7,80.3z"/>
</svg>
