<?xml version="1.0" encoding="utf-8"?>
<!-- Generator: Adobe Illustrator 19.0.0, SVG Export Plug-In . SVG Version: 6.00 Build 0)  -->
<svg version="1.1" id="Layer_1" xmlns="http://www.w3.org/2000/svg" xmlns:xlink="http://www.w3.org/1999/xlink" x="0px" y="0px"
	 viewBox="-105 198.6 400 397.4" style="enable-background:new -105 198.6 400 397.4;" xml:space="preserve">
<style type="text/css">
	.st0{fill:#1E6EA5;}
	.st1{opacity:0.4;fill:#FFFFFF;enable-background:new    ;}
	.st2{fill:#CF4B99;}
	.st3{fill:#232323;}
	.st4{fill:#CB3794;}
	.st5{fill:#FFFFFF;}
	.st6{fill:#E2BD30;}
	.st7{fill:#FFD190;}
	.st8{fill:#595A5C;}
	.st9{fill:#424143;}
	.st10{fill:#0F333B;}
	.st11{fill:#082128;}
	.st12{fill:#6154A4;}
	.st13{fill:#0A161D;}
	.st14{fill:#08242C;}
	.st15{fill:#F05164;}
	.st16{fill:#010101;}
	.st17{fill:#198F74;}
	.st18{fill:#CECECD;}
	.st19{opacity:0.8;}
	.st20{fill:#E5365C;}
	.st21{font-family:'BrandonGrotesque-Regular';}
	.st22{font-size:7.5995px;}
	.st23{font-size:12.9017px;}
</style>
<g id="XMLID_28_">
	<polygon id="XMLID_486_" class="st0" points="-105,199.1 295,199 295,596 -105,596 	"/>
	<path id="XMLID_480_" class="st1" d="M206.7,340.6l2.4,1.7h2.3V338l7.1-0.7l6.8,5h11.1l0.8-0.7c-1.1-3.8-2.4-7.4-3.8-11l-7.3,0.1
		l-3.6-4l-0.7-6.4l-3.7,2l-2,7.9l-5.4-5.7l-0.2-5.4l-5.2-4.5l-1.9-1.9h-6l1.9,5.4l7.3,4l1.3,1.3l-1.6,0.8l0.1,4.3l-3.5,1.5l-3-0.7
		l-1.9-2.7l4.9,0.3l1.3-1.8l-10.9-7.3l-0.8-3.1l-4.4,4l-4.5-0.9l-6.8,8.9l-1.3,3.5l-4.4,0.4h-6.5l-3.9-1.8l-1.1-7.7l1.4-3.7l6.6-1.4
		l7.2,1.4l0.9-4l-3-0.7l1-6.2l7.2-1.1l5-7.1l5.2-0.9l4.7,0.7h1.7l-1-6.7l-5.7,2.3l-2-5l-3.3-0.5l-0.6-3.4l2.7-2.9l6.4-2.5l1.7-3
		c-24.6-21.6-56.8-34.8-92-34.8c-30.6,0-58.9,9.9-81.9,26.7l7-0.1l3.1,1.7l5.9,1.3l0.5,2.3l9.4,0.3l-1.3-3l-8.3-0.2l2-1.8l-0.7-2.2
		h-7.5l8.2-6.1H48l3.7,5.1l6.1,0.3l3.7-3.6l2.8,1.4l-5.1,5c0,0-7.1,0.1-6.7,0.1c0.3,0,0.6,4.9,0.6,4.9l8.6-0.2l0.9-2.3l5.9-0.3
		l0.7-3.5l-3.5-0.6l1.2-3.1l2.7-0.8l9.3,0.5l-5.1,4.6l0.8,3.6l5.3,0.8l-0.3-6.5l5.1-2.7l9-1l13.1,5.8v5l4.2,1l-2.1,3.9H103l-1.7,4.5
		l-13.5-3.2l10.6-5.7l-4-3.4l-9.2,1.2l-0.8,0.8l0,0l-0.1,0.2l-2.6,2.7l-4.3,0.4l0.3,2.2l1.5,0.6l-0.1,0.7l-3.5,0.5l-0.3,2.1
		l-3.4,0.2l-0.6-4.1l-6.1,1.8l-12.4,7.3l1.4,5.1l3.5,2.3l6.9,1v7.9l3.2-0.5l3-6.2l7.4-2.3v-9.5l4.1-3.1l9.9,2.3l-0.7,6.3h2.7
		l7.3-3.6l0.3,8.2l5.3,3.2l-0.2,4.9l-5.1,1.7l0.3,1.6l6.1,2.8l-0.1,3.4l-1.8,0.2c0-0.1,0-0.1,0-0.1l-7.7-2.4l-0.3-2.5l0,0l2.3-1.6
		v-2.3l-2.4-0.6l-0.6,2.1l-4.3,0.7l-0.4-0.1v0.2l-1.5,0.2l-1.2-2.4l-1.4-0.6h-3l-1.4,1.1v2.5l2.6,0.9l2.6,0.4l-0.6,0.3l-2.3,2.6
		l-1-1.3l-2.3-0.6l-6.2,5.8l0.8,0.7l-9.1,5l-8.6,8.9l-0.6,4l-8.6,5.6l-4.3,4.3l0.5,8.6l-5.9-2.8v-5H25l-8.5,4.3l-3.7,6.8l-1.5,5.4
		l2.4,5.2l6.7,0.8l10.7-7.1l0.9,3.5l-3.3,6.1l8.1,1.4l0.8,12.5l11.1,1.9l7.1-8.2l8.6,1.7l3,4.2l8.2-0.5l0.2-2.4l4.5,2.2l5.1,8
		l8.8,0.1l3.2,5.7l0.5,6.9l9.7,3.7l12.3,0.1l3.6,5.9l5.4,1.7l-1,4.9l-6,7.6l-1.7,16.8l-5.4,4.3l-8-0.2l-2.7,4.6l2,8.7l-8.7,11.1
		l-2.8,5.1l-8.3,4l-5.4,0.8l-0.2,2.3l3.8,1.1l-0.5,2.5l-3.4,3.3l2.1,2.6l4.1,0.1l-0.2,3.2l-1.1,3.1l-0.4,2.5l6.1,5.1l-0.8,2.7
		l-8.3-0.2l-8.3-7.2l-6.4-11.3l0.9-10.9l-4.9-6.5l2-11l-2.9-0.8v-23.9c0,0-8.1-6.1-8.6-6.1s-4.3-1-4.3-1l-0.8-4.5L38,413.5l1-4.7
		l0.3-7.8l7.3-5.1l-1-8.7l-10.7-0.8l-8.3-9.5l-5.9-1.6l-3.8-0.7l0.5-3.5l-4.9-0.7v2l-12.2-3l-4.9-7.5l2-3.6l-7.7-11.2l-1.3-8.2h-3.1
		l1,8l5.3,8.2l-0.6,3.2l-4.5-0.7l-5.6-9.5v-11l-5.8-2.8v-7.9c-7.2,16.8-11.1,35.2-11.1,54.5c0,76.8,62.5,139.4,139.4,139.4
		c43.6,0,82.5-20.1,108.1-51.5h-4.6v-9.3l-5.3-7.2v-11.1l-4.1-4l-0.3-4.6l5.2-9.8l-9.8-17.3l1.2-11.7l-8.8-0.9l-3.2-3.2h-5.9l-3,2.8
		h-10.4l-0.4,0.9h-5.8L143,378.2l0.1-11.8l2.2-0.8l0.8-4.5H143l-1.3-4.7l15.4-11.1v-7.9l7.5-4.2l3.1,0.3h6.2l4.9-2.6l15.6-1.2v8
		L206.7,340.6z M167.6,290.9l1.3-2l4.6-0.9l1.2,5.6l2.4,3.9l1.6,1.9l2.9,1.2l-2.8,3.3l-5.4,0.5h-4.1l0.5-4.8l3.4-0.7l-0.3-2.3
		l-3.1-2l-2.2-1.5V290.9z M160.1,299.6l2.8-4.5l3.8-0.9l2.7,1.2l-0.2,3l-5.7,4.1h-3.2v-2.9H160.1z M84.3,316.7l-2.9,0.2l0.2-2
		l1.3-1.6l1.7,1.4L84.3,316.7z M94.5,313.2l-2,0.2l-0.4,1.9l-1.5,0.9l-2.4,0.2c-0.1-0.6-0.1-1-0.1-1h-1v-2.1h4l0.8-2.1h1.6l1.8,0.4
		L94.5,313.2z"/>
	<g id="XMLID_30_">
		<g id="XMLID_34_">
			<g id="XMLID_428_">
				<g id="XMLID_446_">
					<g id="XMLID_462_">
						<g id="XMLID_473_">
							<path id="XMLID_477_" class="st2" d="M81.2,344.4c0,0.7-0.6,1.3-1.3,1.3H75c-0.7,0-1.3-0.6-1.3-1.3v-3c0-0.7,0.6-1.3,1.3-1.3
								h4.9c0.7,0,1.3,0.6,1.3,1.3V344.4z"/>
							<path id="XMLID_474_" class="st2" d="M91.2,344.4c0,0.7-0.6,1.3-1.3,1.3H85c-0.7,0-1.3-0.6-1.3-1.3v-3c0-0.7,0.6-1.3,1.3-1.3
								h4.9c0.7,0,1.3,0.6,1.3,1.3V344.4z"/>
						</g>
						<path id="XMLID_472_" class="st3" d="M138.5,347.3c0,2.1-1.7,3.8-3.8,3.8h-23c-2.1,0-3.8-1.7-3.8-3.8v-7
							c0-2.1,1.7-3.8,3.8-3.8h23c2.1,0,3.8,1.7,3.8,3.8V347.3z"/>
						<path id="XMLID_471_" class="st3" d="M138.5,385.3c0,2.1-1.7,3.8-3.8,3.8h-63c-2.1,0-3.8-1.7-3.8-3.8v-39.5
							c0-2.1,1.7-3.8,3.8-3.8h63c2.1,0,3.8,1.7,3.8,3.8V385.3z"/>
						<rect id="XMLID_468_" x="67.8" y="351.4" class="st4" width="70.6" height="28.4"/>
						<path id="XMLID_467_" class="st5" d="M135.9,342.4c0,0.5-0.4,0.8-0.8,0.8h-6.6c-0.5,0-0.8-0.4-0.8-0.8v-3
							c0-0.5,0.4-0.8,0.8-0.8h6.6c0.5,0,0.8,0.4,0.8,0.8V342.4z"/>
						<path id="XMLID_466_" class="st5" d="M120.5,342.4c0,0.5-0.4,0.8-0.8,0.8h-6.6c-0.5,0-0.8-0.4-0.8-0.8v-3
							c0-0.5,0.4-0.8,0.8-0.8h6.6c0.5,0,0.8,0.4,0.8,0.8V342.4z"/>
						<path id="XMLID_463_" class="st6" d="M76.7,346.8c0,1.2-1,2.2-2.2,2.2l0,0c-1.2,0-2.2-1-2.2-2.2l0,0c0-1.2,1-2.2,2.2-2.2l0,0
							C75.7,344.6,76.7,345.6,76.7,346.8L76.7,346.8z"/>
					</g>
					<path id="XMLID_459_" class="st7" d="M46.4,375.5c-4.3,7.3-2.1,15.2-2.1,15.2l17.9,0.8c0,0,5.1-4,7.3-4h12.6c2.2,0,4-1.8,4-4
						c0-1.8-1.2-3.3-2.8-3.8h1.5c2.2,0,4-1.7,4-3.8c0-1.6-1.1-3-2.6-3.5h0.7c2.2,0,4-1.6,4-3.6s-1.8-3.6-4-3.6h-1.2
						c2.2,0,4-1.6,4-3.7c0-2-1.8-3.7-4-3.7l-16.9,0.9l-0.6-0.9c0,0,2.6-11.2-3-14.9c-5.7-3.8-5.1,6.7-6.1,12.6
						C57.8,361.5,50.7,368.2,46.4,375.5z M72.9,365.3h-0.2l0,0C72.8,365.2,72.9,365.3,72.9,365.3z"/>
					<path id="XMLID_456_" class="st7" d="M148,354.1c-1.1-5.9-0.4-16.3-6.1-12.6c-5.6,3.7-3,14.9-3,14.9l-0.6,0.9l-16.9-0.9
						c-2.2,0-4,1.6-4,3.7c0,2,1.8,3.7,4,3.7h-1.2c-2.2,0-4,1.6-4,3.6s1.8,3.6,4,3.6h0.7c-1.5,0.5-2.6,1.9-2.6,3.5
						c0,2.1,1.8,3.8,4,3.8h1.5c-1.6,0.5-2.8,2-2.8,3.8c0,2.2,1.8,4,4,4h12.6c2.2,0,10.3,4.2,12.2,2.9l14.1,0.2c0,0,1.5-7-2.5-13.4
						C157.2,369.2,149,359.9,148,354.1z M134.1,363.7L134.1,363.7h-0.2C134,363.7,134.1,363.7,134.1,363.7z"/>
					<g id="XMLID_447_">
						<circle id="XMLID_453_" class="st2" cx="102" cy="367.4" r="19.7"/>
						<circle id="XMLID_452_" class="st8" cx="102" cy="367.4" r="15.5"/>
						<circle id="XMLID_451_" class="st9" cx="102" cy="367.4" r="13.8"/>
						<circle id="XMLID_450_" class="st8" cx="102" cy="367.4" r="12.1"/>
						<circle id="XMLID_449_" class="st3" cx="102" cy="367.4" r="8.3"/>
						<circle id="XMLID_448_" class="st5" cx="107.2" cy="361.8" r="3.1"/>
					</g>
				</g>
				<rect id="XMLID_445_" x="54.5" y="389" class="st10" width="12.1" height="140"/>
				<rect id="XMLID_444_" x="41.9" y="389" class="st11" width="12.6" height="140"/>
				<rect id="XMLID_443_" x="139.2" y="387.1" class="st11" width="13.2" height="140"/>
				<g id="XMLID_436_">
					<circle id="XMLID_440_" class="st6" cx="46.1" cy="394.7" r="1.6"/>
					<circle id="XMLID_437_" class="st6" cx="46.1" cy="399" r="1.6"/>
				</g>
				<g id="XMLID_429_">
					<circle id="XMLID_433_" class="st6" cx="143" cy="394.1" r="1.6"/>
					<circle id="XMLID_430_" class="st6" cx="143" cy="398.4" r="1.6"/>
				</g>
			</g>
			<g id="XMLID_405_">
				<g id="XMLID_413_">
					<g id="XMLID_416_">
						<path id="XMLID_427_" class="st3" d="M5.2,412.9c0.1,1.7-1.3,3.2-3,3.3l-7.7,0.4c-1.7,0.1-3.2-1.2-3.3-2.9l-3.8-53.5
							c-0.1-1.7,1.2-3.2,2.9-3.3l9.6-0.5c1.7-0.1,3.2,1.2,3.2,2.9L5.2,412.9z"/>
						<circle id="XMLID_426_" class="st3" cx="-5.7" cy="342" r="14.1"/>
						<path id="XMLID_423_" class="st12" d="M9.4,341.2c0.1,0.9-0.7,1.7-1.6,1.8l-26.8,1.4c-0.9,0.1-1.7-0.7-1.8-1.6l0,0
							c-0.1-0.9,0.7-1.7,1.6-1.8l26.8-1.5C8.6,339.5,9.4,340.2,9.4,341.2L9.4,341.2z"/>
						<path id="XMLID_420_" class="st7" d="M13,381.2c-1.4-5.9-1.3-16.5-6.9-12.4c-5.4,4-2.2,15.2-2.2,15.2l-0.5,0.9h-17.1
							c-2.2,0.1-3.9,1.9-3.8,3.9c0.1,2.1,2,3.6,4.2,3.5l-1.3,0.1c-2.2,0.1-3.9,1.8-3.8,3.9c0.1,2,2,3.5,4.2,3.4h0.8
							c-1.5,0.6-2.5,2.1-2.4,3.7c0.1,2.1,2,3.7,4.2,3.6l1.5-0.1c-1.6,0.6-2.8,2.2-2.7,4c0.1,2.2,2,3.9,4.2,3.8L4.1,414
							c2.2-0.1,10.7,3.7,12.5,2.3l12.5-12.5C29,401.6,14.4,387,13,381.2z M-0.5,391.7L-0.5,391.7h-0.2
							C-0.6,391.7-0.6,391.7-0.5,391.7z"/>
						<path id="XMLID_417_" class="st12" d="M14.7,368.9c0.1,2.1-1.5,3.8-3.5,3.9l-30.2,1.6c-2.1,0.1-3.8-1.5-3.9-3.5l-0.6-10.5
							c-0.1-2.1,1.5-3.8,3.5-3.9l30.2-1.6c2.1-0.1,3.8,1.5,3.9,3.5L14.7,368.9z"/>
					</g>
					<polygon id="XMLID_415_" class="st13" points="8.4,415.5 89.5,528.6 103,528.6 19.6,409.2 					"/>
					<polygon id="XMLID_414_" class="st14" points="29.9,403.5 19.6,409.2 103,528.6 117.9,527.2 					"/>
				</g>
				<g id="XMLID_406_">
					<circle id="XMLID_410_" class="st6" cx="15.8" cy="417.9" r="1.7"/>
					<circle id="XMLID_407_" class="st6" cx="18.6" cy="421.7" r="1.7"/>
				</g>
			</g>
			<g id="XMLID_264_">
				<g id="XMLID_272_">
					<path id="XMLID_402_" class="st7" d="M14.6,449.7c-1.2-6.6-0.5-18.4-6.9-14.1c-6.2,4.1-3.4,16.7-3.4,16.7l-0.6,1l-24.1-1
						c-2.5,0-4.4,1.8-4.4,4.1s2,4.1,4.4,4.1h-1.4c-2.5,0-4.5,1.8-4.5,4s2,4,4.5,4h0.8c-1.7,0.6-2.9,2.1-2.9,3.9c0,2.3,2,4.2,4.5,4.2
						h1.7c-1.8,0.5-3.2,2.2-3.2,4.3c0,2.5,2,4.4,4.5,4.4H2.8c2.5,0,11.6,4.7,13.7,3.3l14.5-13C31.1,473.3,15.8,456.3,14.6,449.7z
						 M-1,460.5L-1,460.5h-0.2C-1.1,460.5-1,460.5-1,460.5z"/>
					<g id="XMLID_275_">
						<path id="XMLID_399_" class="st15" d="M0,443.9c-0.5,0.1-0.9,0.5-0.8,1l0.4,3.2c0.1,0.5,0.5,0.9,1,0.8l3.2-0.4
							c0.5-0.1,0.9-0.5,0.8-1l-0.4-3.2c-0.1-0.5-0.5-0.9-1-0.8L0,443.9z"/>
						<path id="XMLID_398_" class="st16" d="M-0.7,437.8c-0.5,0.1-0.9,0.5-0.8,1l0.4,3.2c0.1,0.5,0.5,0.9,1,0.8l3.2-0.4
							c0.5-0.1,0.9-0.5,0.8-1l-0.4-3.2c-0.1-0.5-0.5-0.9-1-0.8L-0.7,437.8z"/>
						<path id="XMLID_397_" class="st16" d="M0.8,450.2c-0.5,0.1-0.9,0.5-0.8,1l0.4,3.2c0.1,0.5,0.5,0.9,1,0.8l3.2-0.4
							c0.5-0.1,0.9-0.5,0.8-1L5,450.6c-0.1-0.5-0.5-0.9-1-0.8L0.8,450.2z"/>
						<path id="XMLID_396_" class="st3" d="M6.8,484.1c0.5-0.1,0.8-0.5,0.7-1l-5.9-48c-0.1-0.5-0.5-0.8-1-0.8l-23.7,2.9
							c-0.5,0.1-0.8,0.5-0.7,1l5.9,48c0.1,0.5,0.5,0.8,1,0.8L6.8,484.1z"/>
						<path id="XMLID_393_" class="st17" d="M-16.9,459.4c-0.5,0.1-0.8,0.5-0.7,1l2.7,21.8c0.1,0.5,0.5,0.8,1,0.7l16.8-2.1
							c0.5-0.1,0.8-0.5,0.7-1L0.9,458c-0.1-0.5-0.5-0.8-1-0.7L-16.9,459.4z"/>
						<g id="XMLID_388_">
							<path id="XMLID_392_" class="st3" d="M-15.2,460.8c-0.4,0.1-0.7,0.4-0.6,0.8l2.3,18.9c0.1,0.4,0.4,0.7,0.8,0.6l10.3-1.3
								c0.4,0,0.7-0.4,0.6-0.8l-2.3-18.9c-0.1-0.4-0.4-0.7-0.8-0.6L-15.2,460.8z"/>
							<circle id="XMLID_391_" class="st18" cx="-8.9" cy="475.2" r="3.4"/>
							<circle id="XMLID_390_" class="st18" cx="-10.1" cy="465.5" r="1.9"/>
							<circle id="XMLID_389_" class="st18" cx="-9.6" cy="469.6" r="1.2"/>
						</g>
						<g id="XMLID_276_" class="st19">
							<path id="XMLID_385_" class="st18" d="M-12.3,449.6c0.4,0,0.7,0.2,0.8,0.6c0,0.4-0.2,0.7-0.6,0.8c-0.4,0-0.7-0.2-0.8-0.6
								C-12.9,450-12.7,449.7-12.3,449.6L-12.3,449.6z"/>
							<path id="XMLID_382_" class="st18" d="M-9.6,449.3c0.4,0,0.7,0.2,0.8,0.6c0,0.4-0.2,0.7-0.6,0.8c-0.4,0-0.7-0.2-0.8-0.6
								C-10.2,449.7-10,449.3-9.6,449.3L-9.6,449.3z"/>
							<path id="XMLID_379_" class="st18" d="M-4.1,448.6c0.4,0,0.7,0.2,0.8,0.6c0,0.4-0.2,0.7-0.6,0.8c-0.4,0-0.7-0.2-0.8-0.6
								C-4.8,449-4.5,448.7-4.1,448.6L-4.1,448.6z"/>
							<path id="XMLID_376_" class="st18" d="M-1.1,448.9c0.1-0.4-0.1-0.7-0.4-0.6c-0.3,0-0.5,0.4-0.5,0.7c0,0.4,0.2,0.7,0.4,0.6
								C-1.4,449.7-1.2,449.3-1.1,448.9L-1.1,448.9z"/>
							<path id="XMLID_373_" class="st18" d="M-17.3,448.2c0-0.4-0.4-0.6-0.7-0.6c-0.4,0-0.7,0.2-0.6,0.4c0,0.1,0,0.2,0,0.3
								c0,0.1,0,0.2,0.1,0.3c0,0.2,0.4,0.3,0.7,0.3C-17.5,448.9-17.3,448.5-17.3,448.2L-17.3,448.2z"/>
							<path id="XMLID_370_" class="st18" d="M-15,450c0.4,0,0.7,0.2,0.8,0.6c0,0.4-0.2,0.7-0.6,0.8c-0.4,0-0.7-0.2-0.8-0.6
								C-15.7,450.4-15.4,450-15,450L-15,450z"/>
							<path id="XMLID_367_" class="st18" d="M-6.8,455c0,0.3,0.4,0.4,0.7,0.3c0.4-0.2,0.6-0.5,0.6-0.7c0-0.2-0.3-0.3-0.7-0.2
								S-6.8,454.7-6.8,455L-6.8,455z"/>
							<path id="XMLID_364_" class="st18" d="M-10.9,455.5c0-0.3-0.4-0.5-0.8-0.5s-0.7,0.2-0.6,0.4c0,0.2,0.4,0.4,0.7,0.5
								C-11.1,456.1-10.8,455.8-10.9,455.5L-10.9,455.5z"/>
							<path id="XMLID_361_" class="st18" d="M-17,450.9c0-0.4-0.3-0.6-0.6-0.6c-0.3,0-0.4,0.4-0.3,0.7c0.2,0.4,0.5,0.6,0.7,0.6
								C-17,451.6-16.9,451.3-17,450.9L-17,450.9z"/>
							<path id="XMLID_358_" class="st18" d="M-8.1,455.3c0-0.4-0.4-0.6-0.8-0.6s-0.6,0.4-0.6,0.7c0,0.4,0.2,0.6,0.4,0.7
								c0.1,0,0.2,0,0.3,0c0.1,0,0.2,0,0.3-0.1C-8.2,456-8.1,455.7-8.1,455.3L-8.1,455.3z"/>
							<path id="XMLID_355_" class="st18" d="M-14.7,452.7c0.4,0,0.7,0.2,0.8,0.6c0,0.4-0.2,0.7-0.6,0.8c-0.4,0-0.7-0.2-0.8-0.6
								C-15.3,453.1-15.1,452.7-14.7,452.7L-14.7,452.7z"/>
							<path id="XMLID_352_" class="st18" d="M-6.5,451.7c0.4,0,0.7,0.2,0.8,0.6c0,0.4-0.2,0.7-0.6,0.8c-0.4,0-0.7-0.2-0.8-0.6
								C-7.2,452.1-6.9,451.7-6.5,451.7L-6.5,451.7z"/>
							<path id="XMLID_349_" class="st18" d="M-3.8,451.3c0.4,0,0.7,0.2,0.8,0.6c0,0.4-0.2,0.7-0.6,0.8c-0.4,0-0.7-0.2-0.8-0.6
								C-4.4,451.7-4.2,451.4-3.8,451.3L-3.8,451.3z"/>
							<path id="XMLID_346_" class="st18" d="M-12,452.3c0.4,0,0.7,0.2,0.8,0.6c0,0.4-0.2,0.7-0.6,0.8c-0.4,0-0.7-0.2-0.8-0.6
								C-12.6,452.7-12.3,452.4-12,452.3L-12,452.3z"/>
							<path id="XMLID_343_" class="st18" d="M-9.2,452c0.4,0,0.7,0.2,0.8,0.6c0,0.4-0.2,0.7-0.6,0.8c-0.4,0-0.7-0.2-0.8-0.6
								C-9.9,452.4-9.6,452.1-9.2,452L-9.2,452z"/>
							<path id="XMLID_340_" class="st18" d="M-6.9,449c0.4,0,0.7,0.2,0.8,0.6c0,0.4-0.2,0.7-0.6,0.8c-0.4,0-0.7-0.2-0.8-0.6
								C-7.5,449.3-7.2,449-6.9,449L-6.9,449z"/>
							<path id="XMLID_337_" class="st18" d="M-1.1,445.8c0-0.2-0.4-0.3-0.7-0.3c-0.4,0-0.6,0.4-0.6,0.8c0,0.4,0.4,0.6,0.7,0.6
								c0.4,0,0.6-0.2,0.6-0.4c0-0.1,0-0.2,0-0.3C-1,446-1,445.9-1.1,445.8L-1.1,445.8z"/>
							<path id="XMLID_334_" class="st18" d="M-17.6,445.4c0-0.4-0.2-0.7-0.4-0.6c-0.2,0-0.4,0.4-0.5,0.7c-0.1,0.4,0.1,0.7,0.4,0.6
								C-17.8,446.2-17.6,445.8-17.6,445.4L-17.6,445.4z"/>
							<path id="XMLID_331_" class="st18" d="M-4.5,445.9c0.4,0,0.7,0.2,0.8,0.6c0,0.4-0.2,0.7-0.6,0.8c-0.4,0-0.7-0.2-0.8-0.6
								C-5.1,446.3-4.8,445.9-4.5,445.9L-4.5,445.9z"/>
							<path id="XMLID_328_" class="st18" d="M-15.7,444.5c0.4,0,0.7,0.2,0.8,0.6c0,0.4-0.2,0.7-0.6,0.8c-0.4,0-0.7-0.2-0.8-0.6
								C-16.3,444.9-16.1,444.6-15.7,444.5L-15.7,444.5z"/>
							<path id="XMLID_325_" class="st18" d="M-9.9,446.6c0.4,0,0.7,0.2,0.8,0.6c0,0.4-0.2,0.7-0.6,0.8c-0.4,0-0.7-0.2-0.8-0.6
								C-10.6,446.9-10.3,446.6-9.9,446.6L-9.9,446.6z"/>
							<path id="XMLID_322_" class="st18" d="M-7.2,446.2c0.4,0,0.7,0.2,0.8,0.6c0,0.4-0.2,0.7-0.6,0.8c-0.4,0-0.7-0.2-0.8-0.6
								C-7.8,446.6-7.6,446.3-7.2,446.2L-7.2,446.2z"/>
							<path id="XMLID_319_" class="st18" d="M-13,444.2c0.4,0,0.7,0.2,0.8,0.6c0,0.4-0.2,0.7-0.6,0.8c-0.4,0-0.7-0.2-0.8-0.6
								C-13.6,444.6-13.3,444.2-13,444.2L-13,444.2z"/>
							<path id="XMLID_316_" class="st18" d="M-1.8,443.5c-0.2-0.4-0.5-0.6-0.7-0.6s-0.3,0.3-0.2,0.7c0,0.4,0.3,0.7,0.6,0.6
								C-1.8,444.2-1.6,443.8-1.8,443.5L-1.8,443.5z"/>
							<path id="XMLID_313_" class="st18" d="M-4.8,443.2c0.4,0,0.7,0.2,0.8,0.6c0,0.4-0.2,0.7-0.6,0.8c-0.4,0-0.7-0.2-0.8-0.6
								C-5.5,443.6-5.2,443.2-4.8,443.2L-4.8,443.2z"/>
							<path id="XMLID_310_" class="st18" d="M-7.5,443.5c0.4,0,0.7,0.2,0.8,0.6c0,0.4-0.2,0.7-0.6,0.8c-0.4,0-0.7-0.2-0.8-0.6
								C-8.2,443.9-7.9,443.5-7.5,443.5L-7.5,443.5z"/>
							<path id="XMLID_307_" class="st18" d="M-10.3,443.8c0.4,0,0.7,0.2,0.8,0.6c0,0.4-0.2,0.7-0.6,0.8c-0.4,0-0.7-0.2-0.8-0.6
								C-10.9,444.2-10.6,443.9-10.3,443.8L-10.3,443.8z"/>
							<path id="XMLID_304_" class="st18" d="M-12.6,446.9c0.4,0,0.7,0.2,0.8,0.6c0,0.4-0.2,0.7-0.6,0.8c-0.4,0-0.7-0.2-0.8-0.6
								S-13,446.9-12.6,446.9L-12.6,446.9z"/>
							<path id="XMLID_301_" class="st18" d="M-12.9,439.4c0-0.3-0.4-0.4-0.7-0.3c-0.4,0.2-0.6,0.5-0.6,0.7c0,0.2,0.3,0.3,0.7,0.2
								C-13.1,440-12.8,439.7-12.9,439.4L-12.9,439.4z"/>
							<path id="XMLID_298_" class="st18" d="M-5.1,440.4c0.4,0,0.7,0.2,0.8,0.6c0,0.4-0.2,0.7-0.6,0.8c-0.4,0-0.7-0.2-0.8-0.6
								S-5.5,440.5-5.1,440.4L-5.1,440.4z"/>
							<path id="XMLID_295_" class="st18" d="M-7.9,440.8c0.4,0,0.7,0.2,0.8,0.6c0,0.4-0.2,0.7-0.6,0.8c-0.4,0-0.7-0.2-0.8-0.6
								C-8.5,441.2-8.2,440.8-7.9,440.8L-7.9,440.8z"/>
							<path id="XMLID_292_" class="st18" d="M-10.8,439.7c0.4,0,0.6-0.4,0.6-0.7c0-0.4-0.2-0.6-0.4-0.6c-0.1,0-0.2,0-0.3,0
								c-0.1,0-0.2,0-0.3,0.1c-0.2,0-0.3,0.4-0.3,0.7C-11.5,439.5-11.1,439.8-10.8,439.7L-10.8,439.7z"/>
							<path id="XMLID_289_" class="st18" d="M-15.4,447.2c0.4,0,0.7,0.2,0.8,0.6c0,0.4-0.2,0.7-0.6,0.8c-0.4,0-0.7-0.2-0.8-0.6
								C-16,447.6-15.7,447.3-15.4,447.2L-15.4,447.2z"/>
							<path id="XMLID_286_" class="st18" d="M-16,441.8c0.4,0,0.7,0.2,0.8,0.6c0,0.4-0.2,0.7-0.6,0.8c-0.4,0-0.7-0.2-0.8-0.6
								C-16.7,442.2-16.4,441.8-16,441.8L-16,441.8z"/>
							<path id="XMLID_283_" class="st18" d="M-10.6,441.1c0.4,0,0.7,0.2,0.8,0.6c0,0.4-0.2,0.7-0.6,0.8c-0.4,0-0.7-0.2-0.8-0.6
								C-11.2,441.5-11,441.2-10.6,441.1L-10.6,441.1z"/>
							<path id="XMLID_280_" class="st18" d="M-8.8,438.9c0,0.3,0.4,0.5,0.8,0.5s0.7-0.2,0.6-0.4c0-0.2-0.3-0.4-0.7-0.5
								C-8.5,438.4-8.8,438.6-8.8,438.9L-8.8,438.9z"/>
							<path id="XMLID_277_" class="st18" d="M-13.3,441.4c0.4,0,0.7,0.2,0.8,0.6c0,0.4-0.2,0.7-0.6,0.8c-0.4,0-0.7-0.2-0.8-0.6
								C-14,441.8-13.7,441.5-13.3,441.4L-13.3,441.4z"/>
						</g>
					</g>
					<polygon id="XMLID_274_" class="st13" points="10.2,488.6 57.5,527.2 76.6,526.8 19.5,479.9 					"/>
					<polygon id="XMLID_273_" class="st14" points="29.1,470.9 19.5,479.9 76.6,526.8 95.4,526.4 					"/>
				</g>
				<g id="XMLID_265_">
					<circle id="XMLID_269_" class="st6" cx="17.7" cy="488.5" r="1.5"/>
					<circle id="XMLID_266_" class="st6" cx="20.8" cy="491.2" r="1.5"/>
				</g>
			</g>
			<rect id="XMLID_261_" x="152.4" y="387.1" class="st10" width="11.5" height="140"/>
			<g id="XMLID_238_">
				<g id="XMLID_246_">
					<g id="XMLID_249_">
						<path id="XMLID_260_" class="st3" d="M199.7,413c0,1.7,1.4,3.1,3.1,3.2l7.8,0.2c1.7,0,3.2-1.3,3.2-3l2.2-53.8
							c0.1-1.7-1.3-3.1-3-3.2l-9.6-0.2c-1.7,0-3.1,1.3-3.1,3L199.7,413z"/>
						<circle id="XMLID_259_" class="st3" cx="208.5" cy="341.7" r="14.1"/>
						<path id="XMLID_256_" class="st6" d="M193.4,341.4c0,0.9,0.7,1.7,1.7,1.8l26.9,0.7c0.9,0,1.7-0.7,1.8-1.7l0,0
							c0-0.9-0.7-1.7-1.7-1.8l-26.9-0.7C194.2,339.7,193.4,340.4,193.4,341.4L193.4,341.4z"/>
						<path id="XMLID_253_" class="st7" d="M175.5,404.7l12.9,12.1c1.9,1.3,10.3-2.7,12.5-2.7l12.8,0.3c2.2,0.1,4.1-1.7,4.1-3.9
							c0-1.8-1.1-3.4-2.8-3.9h1.5c2.2,0.1,4.1-1.6,4.1-3.7c0-1.6-1-3-2.5-3.6h0.8c2.2,0.1,4.1-1.5,4.1-3.6c0-2-1.7-3.7-3.9-3.7h-1.3
							c2.2,0.1,4.1-1.6,4.1-3.6c0.1-2.1-1.7-3.8-3.9-3.8l-17.2,0.5l-0.6-0.9c0,0,2.9-11.3-2.7-15.2c-5.7-4-5.3,6.7-6.6,12.6
							C189.8,387.4,175.5,402.5,175.5,404.7z M205,391.7h-0.2l0,0C204.9,391.7,204.9,391.7,205,391.7z"/>
						<path id="XMLID_250_" class="st6" d="M189,369.2c-0.1,2.1,1.6,3.8,3.6,3.8l30.3,0.7c2.1,0.1,3.8-1.6,3.8-3.6l0.3-10.5
							c0.1-2.1-1.6-3.8-3.6-3.8l-30.3-0.7c-2.1,0-3.8,1.6-3.8,3.6L189,369.2z"/>
					</g>
					<polygon id="XMLID_248_" class="st14" points="197.7,414.4 186,408.3 107.5,527.6 122.7,526.8 					"/>
					<polygon id="XMLID_247_" class="st13" points="175.8,403 96.1,521.7 107.5,527.6 186,408.3 					"/>
				</g>
				<g id="XMLID_239_">
					<circle id="XMLID_243_" class="st6" cx="176.7" cy="408.8" r="1.7"/>
					<circle id="XMLID_240_" class="st6" cx="174.2" cy="412.8" r="1.7"/>
				</g>
			</g>
			<g id="XMLID_94_">
				<g id="XMLID_103_">
					<path id="XMLID_235_" class="st7" d="M179,475.7l14.5,13c2.1,1.4,11.2-3.3,13.7-3.3h19.2c2.5,0,4.5-2,4.5-4.5
						c0-2-1.3-3.7-3.2-4.3h1.7c2.5,0,4.5-1.9,4.5-4.2c0-1.8-1.2-3.3-2.9-3.9h0.8c2.5,0,4.5-1.8,4.5-4s-2-4-4.5-4h-1.4
						c2.5,0,4.4-1.8,4.4-4.1c0-2.3-2-4.1-4.4-4.1l-24.1,1l-0.6-1c0,0,2.9-12.5-3.4-16.7c-6.4-4.3-5.7,7.5-6.9,14.1
						C194.3,456.2,179,473.2,179,475.7z M211.2,460.5H211l0,0C211.1,460.5,211.1,460.5,211.2,460.5z"/>
					<g id="XMLID_106_">
						<path id="XMLID_232_" class="st15" d="M210,443.9c0.5,0.1,0.9,0.5,0.8,1l-0.4,3.2c-0.1,0.5-0.5,0.9-1,0.8l-3.2-0.4
							c-0.5-0.1-0.9-0.5-0.8-1l0.4-3.2c0.1-0.5,0.5-0.9,1-0.8L210,443.9z"/>
						<path id="XMLID_231_" class="st16" d="M210.7,437.7c0.5,0.1,0.9,0.5,0.8,1l-0.4,3.2c-0.1,0.5-0.5,0.9-1,0.8l-3.2-0.4
							c-0.5-0.1-0.9-0.5-0.8-1l0.4-3.2c0.1-0.5,0.5-0.9,1-0.8L210.7,437.7z"/>
						<path id="XMLID_230_" class="st16" d="M209.2,450.1c0.5,0.1,0.9,0.5,0.8,1l-0.4,3.2c-0.1,0.5-0.5,0.9-1,0.8l-3.2-0.4
							c-0.5-0.1-0.9-0.5-0.8-1l0.4-3.2c0.1-0.5,0.5-0.9,1-0.8L209.2,450.1z"/>
						<path id="XMLID_229_" class="st16" d="M208.4,456.4c0.5,0.1,0.9,0.5,0.8,1l-0.4,3.2c-0.1,0.5-0.5,0.9-1,0.8l-3.2-0.4
							c-0.5-0.1-0.9-0.5-0.8-1l0.4-3.2c0.1-0.5,0.5-0.9,1-0.8L208.4,456.4z"/>
						<path id="XMLID_228_" class="st16" d="M207.2,462.6c0.5,0.1,0.9,0.5,0.8,1l-0.4,3.2c-0.1,0.5-0.5,0.9-1,0.8l-3.2-0.4
							c-0.5-0.1-0.9-0.5-0.8-1l0.4-3.2c0.1-0.5,0.5-0.9,1-0.8L207.2,462.6z"/>
						<path id="XMLID_227_" class="st3" d="M203.2,484.1c-0.5-0.1-0.8-0.5-0.7-1l5.9-48c0.1-0.5,0.5-0.8,1-0.8l23.7,2.9
							c0.5,0.1,0.8,0.5,0.7,1l-5.9,48c-0.1,0.5-0.5,0.8-1,0.8L203.2,484.1z"/>
						<path id="XMLID_224_" class="st20" d="M226.9,459.4c0.5,0.1,0.8,0.5,0.7,1l-2.7,21.8c-0.1,0.5-0.5,0.8-1,0.7l-16.8-2.1
							c-0.5-0.1-0.8-0.5-0.8-1L209,458c0.1-0.5,0.5-0.8,1-0.8L226.9,459.4z"/>
						<g id="XMLID_219_">
							<path id="XMLID_223_" class="st3" d="M225.2,460.8c0.4,0.1,0.7,0.4,0.6,0.8l-2.3,18.9c-0.1,0.4-0.4,0.7-0.8,0.6l-10.3-1.3
								c-0.4,0-0.7-0.4-0.6-0.8l2.3-18.9c0.1-0.4,0.4-0.7,0.8-0.6L225.2,460.8z"/>
							<circle id="XMLID_222_" class="st18" cx="218.7" cy="475.5" r="3.4"/>
							<circle id="XMLID_221_" class="st18" cx="220.3" cy="464.7" r="3.4"/>
							<circle id="XMLID_220_" class="st18" cx="219.4" cy="470" r="1.2"/>
						</g>
						<g id="XMLID_107_" class="st19">
							<path id="XMLID_216_" class="st18" d="M222.3,449.5c0.4,0,0.6,0.4,0.6,0.8c0,0.4-0.4,0.6-0.8,0.6s-0.6-0.4-0.6-0.8
								C221.6,449.8,222,449.5,222.3,449.5L222.3,449.5z"/>
							<path id="XMLID_213_" class="st18" d="M219.6,449.2c0.4,0,0.6,0.4,0.6,0.8c0,0.4-0.4,0.6-0.8,0.6s-0.6-0.4-0.6-0.8
								C218.9,449.4,219.2,449.2,219.6,449.2L219.6,449.2z"/>
							<path id="XMLID_210_" class="st18" d="M214.2,448.5c0.4,0,0.6,0.4,0.6,0.8c0,0.4-0.4,0.6-0.8,0.6s-0.6-0.4-0.6-0.8
								C213.5,448.8,213.8,448.5,214.2,448.5L214.2,448.5z"/>
							<path id="XMLID_207_" class="st18" d="M211.2,448.9c0.1,0.4,0.3,0.7,0.5,0.7s0.4-0.3,0.4-0.6c0-0.4-0.2-0.7-0.5-0.7
								C211.3,448.2,211.1,448.5,211.2,448.9L211.2,448.9z"/>
							<path id="XMLID_204_" class="st18" d="M227.3,448.1c0,0.4,0.2,0.7,0.6,0.8c0.4,0,0.7-0.1,0.7-0.3c0-0.1,0.1-0.2,0.1-0.3
								c0-0.1,0-0.2,0-0.3c0-0.2-0.3-0.4-0.6-0.4C227.7,447.4,227.4,447.7,227.3,448.1L227.3,448.1z"/>
							<path id="XMLID_201_" class="st18" d="M225.1,449.9c0.4,0,0.6,0.4,0.6,0.8c0,0.4-0.4,0.6-0.8,0.6s-0.6-0.4-0.6-0.8
								C224.3,450.1,224.7,449.8,225.1,449.9L225.1,449.9z"/>
							<path id="XMLID_198_" class="st18" d="M216.8,455c0-0.3-0.2-0.6-0.6-0.6s-0.7,0.1-0.7,0.2c0,0.2,0.2,0.5,0.6,0.7
								C216.5,455.4,216.8,455.3,216.8,455L216.8,455z"/>
							<path id="XMLID_195_" class="st18" d="M220.9,455.5c0,0.3,0.3,0.5,0.6,0.4c0.4-0.1,0.7-0.3,0.7-0.5s-0.3-0.4-0.6-0.4
								S220.9,455.2,220.9,455.5L220.9,455.5z"/>
							<path id="XMLID_192_" class="st18" d="M227,450.8c0,0.4,0.1,0.7,0.2,0.7c0.2,0,0.5-0.2,0.7-0.6s0-0.7-0.3-0.7
								C227.3,450.2,227.1,450.4,227,450.8L227,450.8z"/>
							<path id="XMLID_189_" class="st18" d="M218.2,455.2c0,0.4,0.1,0.7,0.3,0.7c0.1,0,0.2,0.1,0.3,0.1c0.1,0,0.2,0,0.3,0
								c0.2,0,0.4-0.3,0.4-0.7c0-0.4-0.2-0.7-0.6-0.7C218.6,454.6,218.2,454.9,218.2,455.2L218.2,455.2z"/>
							<path id="XMLID_186_" class="st18" d="M224.7,452.6c0.4,0,0.6,0.4,0.6,0.8c0,0.4-0.4,0.6-0.8,0.6s-0.6-0.4-0.6-0.8
								C224,452.8,224.3,452.6,224.7,452.6L224.7,452.6z"/>
							<path id="XMLID_183_" class="st18" d="M216.6,451.6c0.4,0,0.6,0.4,0.6,0.8c0,0.4-0.4,0.6-0.8,0.6s-0.6-0.4-0.6-0.8
								C215.8,451.8,216.2,451.6,216.6,451.6L216.6,451.6z"/>
							<path id="XMLID_180_" class="st18" d="M213.8,451.3c0.4,0,0.6,0.4,0.6,0.8s-0.4,0.6-0.8,0.6s-0.6-0.4-0.6-0.8
								C213.1,451.5,213.5,451.2,213.8,451.3L213.8,451.3z"/>
							<path id="XMLID_177_" class="st18" d="M222,452.3c0.4,0,0.6,0.4,0.6,0.8s-0.4,0.6-0.8,0.6s-0.6-0.4-0.6-0.8
								C221.3,452.5,221.6,452.2,222,452.3L222,452.3z"/>
							<path id="XMLID_174_" class="st18" d="M219.3,451.9c0.4,0,0.6,0.4,0.6,0.8c0,0.4-0.4,0.6-0.8,0.6s-0.6-0.4-0.6-0.8
								C218.6,452.2,218.9,451.9,219.3,451.9L219.3,451.9z"/>
							<path id="XMLID_171_" class="st18" d="M216.9,448.9c0.4,0,0.6,0.4,0.6,0.8c0,0.4-0.4,0.6-0.8,0.6s-0.6-0.4-0.6-0.8
								C216.2,449.1,216.5,448.8,216.9,448.9L216.9,448.9z"/>
							<path id="XMLID_168_" class="st18" d="M211.1,445.7c0,0.1-0.1,0.2-0.1,0.3c0,0.1,0,0.2,0,0.3c0,0.2,0.3,0.4,0.6,0.4
								c0.4,0,0.7-0.2,0.7-0.6s-0.2-0.7-0.6-0.8C211.5,445.4,211.1,445.5,211.1,445.7L211.1,445.7z"/>
							<path id="XMLID_165_" class="st18" d="M227.7,445.4c0,0.4,0.2,0.7,0.5,0.8c0.3,0,0.5-0.3,0.4-0.6c-0.1-0.4-0.3-0.7-0.5-0.7
								C227.9,444.7,227.7,445,227.7,445.4L227.7,445.4z"/>
							<path id="XMLID_162_" class="st18" d="M214.5,445.8c0.4,0,0.6,0.4,0.6,0.8s-0.4,0.6-0.8,0.6s-0.6-0.4-0.6-0.8
								C213.8,446,214.1,445.8,214.5,445.8L214.5,445.8z"/>
							<path id="XMLID_159_" class="st18" d="M225.7,444.4c0.4,0,0.6,0.4,0.6,0.8c0,0.4-0.4,0.6-0.8,0.6s-0.6-0.4-0.6-0.8
								C225,444.7,225.4,444.4,225.7,444.4L225.7,444.4z"/>
							<path id="XMLID_156_" class="st18" d="M220,446.5c0.4,0,0.6,0.4,0.6,0.8c0,0.4-0.4,0.6-0.8,0.6s-0.6-0.4-0.6-0.8
								S219.6,446.4,220,446.5L220,446.5z"/>
							<path id="XMLID_153_" class="st18" d="M217.2,446.1c0.4,0,0.6,0.4,0.6,0.8c0,0.4-0.4,0.6-0.8,0.6s-0.6-0.4-0.6-0.8
								C216.5,446.4,216.9,446.1,217.2,446.1L217.2,446.1z"/>
							<path id="XMLID_150_" class="st18" d="M223,444.1c0.4,0,0.6,0.4,0.6,0.8c0,0.4-0.4,0.6-0.8,0.6s-0.6-0.4-0.6-0.8
								C222.3,444.3,222.6,444,223,444.1L223,444.1z"/>
							<path id="XMLID_147_" class="st18" d="M211.8,443.4c-0.2,0.4,0,0.7,0.3,0.7s0.6-0.2,0.6-0.6c0-0.4-0.1-0.7-0.2-0.7
								C212.3,442.8,212,443,211.8,443.4L211.8,443.4z"/>
							<path id="XMLID_144_" class="st18" d="M214.8,443.1c0.4,0,0.6,0.4,0.6,0.8c0,0.4-0.4,0.6-0.8,0.6s-0.6-0.4-0.6-0.8
								C214.1,443.3,214.5,443,214.8,443.1L214.8,443.1z"/>
							<path id="XMLID_141_" class="st18" d="M217.6,443.4c0.4,0,0.6,0.4,0.6,0.8c0,0.4-0.4,0.6-0.8,0.6s-0.6-0.4-0.6-0.8
								C216.9,443.6,217.2,443.4,217.6,443.4L217.6,443.4z"/>
							<path id="XMLID_138_" class="st18" d="M220.3,443.8c0.4,0,0.6,0.4,0.6,0.8s-0.4,0.6-0.8,0.6s-0.6-0.4-0.6-0.8
								C219.6,444,219.9,443.7,220.3,443.8L220.3,443.8z"/>
							<path id="XMLID_135_" class="st18" d="M222.7,446.8c0.4,0,0.6,0.4,0.6,0.8s-0.4,0.6-0.8,0.6s-0.6-0.4-0.6-0.8
								C222,447,222.3,446.8,222.7,446.8L222.7,446.8z"/>
							<path id="XMLID_132_" class="st18" d="M222.9,439.4c0,0.3,0.2,0.6,0.6,0.6s0.7-0.1,0.7-0.2c0-0.2-0.2-0.5-0.6-0.7
								C223.3,438.9,222.9,439.1,222.9,439.4L222.9,439.4z"/>
							<path id="XMLID_129_" class="st18" d="M215.2,440.4c0.4,0,0.6,0.4,0.6,0.8c0,0.4-0.4,0.6-0.8,0.6s-0.6-0.4-0.6-0.8
								C214.5,440.6,214.8,440.3,215.2,440.4L215.2,440.4z"/>
							<path id="XMLID_126_" class="st18" d="M217.9,440.7c0.4,0,0.6,0.4,0.6,0.8c0,0.4-0.4,0.6-0.8,0.6s-0.6-0.4-0.6-0.8
								C217.2,440.9,217.5,440.7,217.9,440.7L217.9,440.7z"/>
							<path id="XMLID_123_" class="st18" d="M220.8,439.7c0.4,0,0.7-0.2,0.8-0.6c0-0.4-0.1-0.7-0.3-0.7c-0.1,0-0.2-0.1-0.3-0.1
								c-0.1,0-0.2,0-0.3,0c-0.2,0-0.4,0.3-0.4,0.6C220.2,439.3,220.4,439.6,220.8,439.7L220.8,439.7z"/>
							<path id="XMLID_120_" class="st18" d="M225.4,447.2c0.4,0,0.6,0.4,0.6,0.8c0,0.4-0.4,0.6-0.8,0.6s-0.6-0.4-0.6-0.8
								C224.7,447.4,225,447.1,225.4,447.2L225.4,447.2z"/>
							<path id="XMLID_117_" class="st18" d="M226.1,441.7c0.4,0,0.6,0.4,0.6,0.8c0,0.4-0.4,0.6-0.8,0.6s-0.6-0.4-0.6-0.8
								C225.3,441.9,225.7,441.7,226.1,441.7L226.1,441.7z"/>
							<path id="XMLID_114_" class="st18" d="M220.6,441c0.4,0,0.6,0.4,0.6,0.8c0,0.4-0.4,0.6-0.8,0.6s-0.6-0.4-0.6-0.8
								C219.9,441.2,220.3,441,220.6,441L220.6,441z"/>
							<path id="XMLID_111_" class="st18" d="M218.8,438.9c0-0.3-0.3-0.5-0.6-0.5c-0.4,0.1-0.7,0.3-0.7,0.5c0,0.2,0.3,0.4,0.6,0.4
								C218.5,439.4,218.8,439.2,218.8,438.9L218.8,438.9z"/>
							<path id="XMLID_108_" class="st18" d="M223.3,441.4c0.4,0,0.6,0.4,0.6,0.8c0,0.4-0.4,0.6-0.8,0.6s-0.6-0.4-0.6-0.8
								C222.6,441.6,223,441.3,223.3,441.4L223.3,441.4z"/>
						</g>
					</g>
					<polygon id="XMLID_105_" class="st13" points="180.9,470.8 114.7,526.3 135.3,526.7 190.4,479.7 					"/>
					<polygon id="XMLID_104_" class="st14" points="199.8,488.6 190.4,479.7 135.3,526.7 152.6,527.1 					"/>
				</g>
				<g id="XMLID_96_">
					<circle id="XMLID_100_" class="st6" cx="180.8" cy="475.7" r="1.7"/>
					<circle id="XMLID_97_" class="st6" cx="177.1" cy="478.7" r="1.7"/>
				</g>
			</g>
		</g>
		<path id="XMLID_33_" class="st13" d="M193.3,525.1c0,2.9-2.4,5.3-5.3,5.3H11.1c-2.9,0-5.3-2.4-5.3-5.3l0,0c0-2.9,2.4-5.3,5.3-5.3
			H188C190.9,519.8,193.3,522.1,193.3,525.1L193.3,525.1z"/>
		<text id="XMLID_32_" transform="matrix(0.9988 -4.870017e-002 4.870017e-002 0.9988 -18.0651 368.2204)" class="st5 st21 st22">RADIO</text>
		<text id="XMLID_31_" transform="matrix(0.9994 3.484010e-002 -3.484010e-002 0.9994 199.6099 369.2273)" class="st5 st21 st23">TV</text>
	</g>
</g>
</svg>
