<?xml version="1.0" encoding="utf-8"?>
<!-- Generator: Adobe Illustrator 19.0.0, SVG Export Plug-In . SVG Version: 6.00 Build 0)  -->
<svg version="1.1" id="Layer_1" xmlns="http://www.w3.org/2000/svg" xmlns:xlink="http://www.w3.org/1999/xlink" x="0px" y="0px"
	 viewBox="46 -66.4 442 152.4" style="enable-background:new 46 -66.4 442 152.4;" xml:space="preserve">
<style type="text/css">
	.st0{fill:url(#XMLID_3_);}
	.st1{clip-path:url(#SVGID_2_);fill:url(#XMLID_5_);}
	.st2{fill:#1884B5;}
</style>
<g id="XMLID_4_">
	<g>
		
			<linearGradient id="XMLID_3_" gradientUnits="userSpaceOnUse" x1="62.3621" y1="-48.8878" x2="139.8223" y2="85.2772" gradientTransform="matrix(1 0 0 -1 0 19.2)">
			<stop  offset="0" style="stop-color:#89C8EE"/>
			<stop  offset="0.3399" style="stop-color:#5299C6"/>
			<stop  offset="1" style="stop-color:#424581"/>
		</linearGradient>
		<polygon id="XMLID_13_" class="st0" points="119.6,-58.7 119.6,56.6 84.9,56.6 84.9,-58.6 51.9,-58.6 51.9,56.6 84.9,81.1 
			119.6,81.1 152.6,56.6 152.6,-34.2 152.6,-58.7 		"/>
	</g>
	<g>
		<defs>
			<polygon id="SVGID_1_" points="119.6,-58.7 119.6,56.6 84.9,56.6 84.9,-58.6 51.9,-58.6 51.9,56.6 84.9,81.1 119.6,81.1 
				152.6,56.6 152.6,-34.2 152.6,-58.7 			"/>
		</defs>
		<clipPath id="SVGID_2_">
			<use xlink:href="#SVGID_1_"  style="overflow:visible;"/>
		</clipPath>
		
			<linearGradient id="XMLID_5_" gradientUnits="userSpaceOnUse" x1="94.1916" y1="-91.5709" x2="209.1084" y2="107.4709" gradientTransform="matrix(1 0 0 -1 0 19.2)">
			<stop  offset="0" style="stop-color:#89C8EE"/>
			<stop  offset="0.3399" style="stop-color:#5299C6"/>
			<stop  offset="1" style="stop-color:#424581"/>
		</linearGradient>
		<polygon id="XMLID_2_" class="st1" points="260.5,81.1 151.6,81.1 74.9,81.1 42.8,81.1 42.8,59.3 42.8,-58.6 75.9,-58.6 
			260.5,-58.6 		"/>
	</g>
</g>
<g>
	<path class="st2" d="M172.4,12.4h3.7v7.1c2.3-4.4,6.2-8,12.8-8c8.6,0,14,6,14,15.4v26.6h-3.8V28c0-8.3-3.9-13.1-10.9-13.1
		c-6.9,0-12.2,5.6-12.2,13.5v25.2h-3.7V12.4z"/>
	<path class="st2" d="M211.1,48.5l2.3-2.9c3.9,3.4,8.1,5.2,12.5,5.2c5,0,9-3,9-7.7V43c0-4.1-3.5-6.2-9.6-8.8
		c-6.8-2.8-12.1-5.4-12.1-11.6v-0.2c0-6.3,5.1-10.7,12.3-10.7c4.8,0,9.4,1.9,12.7,4.5l-2.2,3c-3.2-2.4-6.9-3.9-10.7-3.9
		c-5,0-8.4,2.9-8.4,6.8v0.2c0,4,3.8,5.9,9.8,8.5c7.1,3.1,11.8,5.8,11.8,12.1v0.1c0,7-5.8,11.5-13,11.5
		C220.6,54.3,215.2,52.2,211.1,48.5z"/>
	<path class="st2" d="M249-4.2h3.7v23.7c2.3-4.4,6.2-8,12.8-8c8.6,0,14,6,14,15.4v26.6h-3.8V28c0-8.3-3.9-13.1-10.9-13.1
		c-6.9,0-12.2,5.6-12.2,13.5v25.2H249V-4.2z"/>
	<path class="st2" d="M291,39V12.4h3.7V38c0,8.3,4,13,11,13c6.8,0,12.1-5.5,12.1-13.4V12.4h3.8v41.2h-3.8v-7.1
		c-2.2,4.3-6.2,8-12.7,8C296.3,54.5,291,48.5,291,39z"/>
	<path class="st2" d="M336.4,15.8H331v-3.4h5.4V8.2c0-4.3,1.1-7.7,3.2-9.8c1.8-1.8,4.4-2.8,7.6-2.8c1.8,0,3.4,0.3,4.9,0.7v3.6
		c-1.8-0.6-3.3-0.8-4.9-0.8c-4.8,0-7.1,2.9-7.1,9.1v4.2h11.8v3.4h-11.8v37.8h-3.7V15.8z M361.4,15.8h-5.4v-3.4h5.4V8.2
		c0-4.3,1.1-7.7,3.2-9.8c1.8-1.8,4.4-2.8,7.6-2.8c1.9,0,3.4,0.3,4.9,0.7v3.6c-1.8-0.6-3.3-0.8-4.8-0.8c-4.8,0-7.1,2.9-7.1,9.1v4.2
		H377v3.4h-11.8v37.8h-3.8V15.8z M384.9-4.2h3.8v57.8h-3.8V-4.2z"/>
	<path class="st2" d="M399.5,33.3V33c0-12.7,7.3-21.4,16.7-21.4c9.8,0,16.1,8.6,16.1,21.1v1.9h-29c0.5,10.5,7,16.4,14.2,16.4
		c5,0,8.5-2.1,11.4-5l2.3,2.6c-3.7,3.6-7.8,6-14,6C407.7,54.5,399.5,46.5,399.5,33.3z M428.4,31.2c-0.3-8.7-4.6-16.2-12.2-16.2
		c-6.9,0-12.2,6.6-12.8,16.2H428.4z"/>
	<path class="st2" d="M440.1,33.4v-0.6c0-13.5,8.2-21.2,16.7-21.2c7,0,11.4,4.4,14.2,9.4V-4.2h3.8v57.8H471v-8.8
		c-2.9,5.2-7.4,9.7-14.2,9.7C448.3,54.5,440.1,47,440.1,33.4z M471.3,33.4v-0.8c0-10.7-6.9-17.5-14.1-17.5
		c-7.4,0-13.2,6.2-13.2,17.6v0.6c0,11.2,6.1,17.8,13.2,17.8C464.4,51,471.3,44.1,471.3,33.4z"/>
</g>
</svg>
