<?xml version="1.0" encoding="utf-8"?>
<!-- Generator: Adobe Illustrator 19.0.0, SVG Export Plug-In . SVG Version: 6.00 Build 0)  -->
<svg version="1.1" id="Layer_1" xmlns="http://www.w3.org/2000/svg" xmlns:xlink="http://www.w3.org/1999/xlink" x="0px" y="0px"
	 viewBox="0 0 200 200" style="enable-background:new 0 0 200 200;" xml:space="preserve">
<style type="text/css">
	.st0{fill:#3481C3;}
</style>
<g id="XMLID_56_">
	<path id="XMLID_70_" class="st0" d="M79.5,146.8H38.4c-2.2,0-4.1,1.8-4.1,4.1s1.8,4.1,4.1,4.1h41.1c2.2,0,4.1-1.8,4.1-4.1
		S81.7,146.8,79.5,146.8z"/>
	<path id="XMLID_69_" class="st0" d="M141,146.8H99.8c-2.2,0-4.1,1.8-4.1,4.1s1.8,4.1,4.1,4.1H141c2.2,0,4.1-1.8,4.1-4.1
		S143.2,146.8,141,146.8z"/>
	<path id="XMLID_68_" class="st0" d="M141,45H38.4c-2.2,0-4.1,1.8-4.1,4.1c0,2.2,1.8,4.1,4.1,4.1H141c2.2,0,4.1-1.8,4.1-4.1
		C145,46.8,143.2,45,141,45z"/>
	<path id="XMLID_67_" class="st0" d="M141,65.4H99.8c-2.2,0-4.1,1.8-4.1,4.1s1.8,4.1,4.1,4.1H141c2.2,0,4.1-1.8,4.1-4.1
		S143.2,65.4,141,65.4z"/>
	<path id="XMLID_66_" class="st0" d="M141,85.7H99.8c-2.2,0-4.1,1.8-4.1,4.1s1.8,4.1,4.1,4.1H141c2.2,0,4.1-1.8,4.1-4.1
		S143.2,85.7,141,85.7z"/>
	<path id="XMLID_65_" class="st0" d="M141,106.1H99.8c-2.2,0-4.1,1.8-4.1,4.1s1.8,4.1,4.1,4.1H141c2.2,0,4.1-1.8,4.1-4.1
		S143.2,106.1,141,106.1z"/>
	<path id="XMLID_64_" class="st0" d="M141,126.5H99.8c-2.2,0-4.1,1.8-4.1,4.1s1.8,4.1,4.1,4.1H141c2.2,0,4.1-1.8,4.1-4.1
		S143.2,126.5,141,126.5z"/>
	<path id="XMLID_63_" class="st0" d="M79.5,126.5H38.4c-2.2,0-4.1,1.8-4.1,4.1s1.8,4.1,4.1,4.1h41.1c2.2,0,4.1-1.8,4.1-4.1
		S81.7,126.5,79.5,126.5z"/>
	<path id="XMLID_60_" class="st0" d="M79.5,65.4H38.4c-2.2,0-4.1,1.8-4.1,4.1v41.1c0,2.2,1.8,4.1,4.1,4.1h41.1
		c2.2,0,4.1-1.8,4.1-4.1V69.5C83.6,67.2,81.7,65.4,79.5,65.4z M75.4,106.5h-33v-33h33V106.5z"/>
	<path id="XMLID_57_" class="st0" d="M181.7,41h-12.2V28.7c0-4.5-3.7-8.1-8.1-8.1H18c-4.5,0-8.1,3.7-8.1,8.1V159
		c0,11.2,9.1,20.4,20.4,20.4h139.3c11.2,0,20.4-9.1,20.4-20.4v-110C189.8,44.6,186.2,41,181.7,41z M181.7,159
		c0,6.7-5.5,12.2-12.2,12.2H30.2c-6.7,0-12.2-5.5-12.2-12.2V28.7h143.3v124.2c0,5.6,4.6,10.2,10.2,10.2c2.2,0,4.1-1.8,4.1-4.1
		c0-2.2-1.8-4.1-4.1-4.1c-1.1,0-2-0.9-2-2V49.1h12.2V159z"/>
</g>
</svg>
