<?xml version="1.0" encoding="utf-8"?>
<!-- Generator: Adobe Illustrator 19.0.0, SVG Export Plug-In . SVG Version: 6.00 Build 0)  -->
<svg version="1.1" id="Layer_1" xmlns="http://www.w3.org/2000/svg" xmlns:xlink="http://www.w3.org/1999/xlink" x="0px" y="0px"
	 viewBox="0 0 200 200" style="enable-background:new 0 0 200 200;" xml:space="preserve">
<style type="text/css">
	.st0{fill:#3481C3;}
</style>
<g id="XMLID_74_">
	<path id="XMLID_77_" class="st0" d="M170.2,128.9l-8.7-8.7c-1.1-1.1-3-1.1-4.1,0l-21,21c-1.1,1.1-1.1,3,0,4.1l3.2,3.2l-5.4,5.4
		c-1.2,1.2-2.8,1.9-4.5,1.9l-12.9-0.2v-10.9l44.8-44.8c1.1-1.1,1.1-3,0-4.1L153,87c-1.1-1.1-3-1.1-4.1,0l-42.5,42.5
		c-1.5-0.5-3.1-0.8-4.7-0.8c-3.9,0-7.4,1.5-10.1,3.8c-13.3-4.3-22.5-16.9-22.5-30.9c0-3.9,0.7-7.7,2-11.3c2.5-0.5,4.8-1.4,6.8-2.8
		l9.1,9c0,0,0,0,0,0c0,0,0.1,0.1,0.1,0.1c0,0,0.1,0,0.1,0.1c0,0,0.1,0.1,0.1,0.1c0,0,0.1,0,0.1,0.1c0,0,0.1,0,0.1,0.1
		c0,0,0.1,0,0.1,0.1c0,0,0.1,0,0.1,0.1c0.1,0,0.1,0,0.2,0.1c0,0,0,0,0.1,0l13.3,4.4l6,6c1.2,1.2,2.7,1.7,4.2,1.7
		c1.5,0,3.1-0.6,4.2-1.7l8-8c2.3-2.3,2.3-6.1,0-8.4l-6-6l-4.2-13.4c0,0,0-0.1,0-0.1c0-0.1,0-0.1-0.1-0.1c0-0.1,0-0.1-0.1-0.2
		c0,0,0-0.1,0-0.1c0-0.1-0.1-0.1-0.1-0.2c0,0,0,0,0-0.1c0-0.1-0.1-0.1-0.1-0.2c0,0,0,0,0-0.1c0-0.1-0.1-0.1-0.1-0.2c0,0,0,0,0,0l0,0
		c0,0,0,0,0,0L77.2,35.1c-1.7-1.7-4-2.7-6.4-2.7c-2.4,0-4.6,0.9-6.3,2.5L52.6,23c0.4-1.1,0.7-2.2,0.7-3.4c0-2.4-0.9-4.6-2.6-6.3
		c-1.7-1.7-3.9-2.6-6.3-2.6s-4.6,0.9-6.3,2.6l-8.4,8.4c-1.7,1.7-2.6,3.9-2.6,6.3s0.9,4.6,2.6,6.3c1.7,1.7,4,2.6,6.3,2.6
		c1.1,0,2.3-0.2,3.4-0.6l11.9,11.9c-3.4,3.5-3.4,9.2,0.1,12.7l1,1c0.1,0.1,0.2,0.2,0.3,0.3c-2,2.9-3.1,6.4-3.1,10.2
		c0,1.8,0.3,3.6,0.8,5.3c-3.6,7.6-5.4,15.7-5.4,24c0,12.9,4.3,25.1,12.3,35.3c7.5,9.4,17.8,16.2,29.3,19.4v14.8H73.9
		c-6.7,0-12.1,5.4-12.1,12.1v3.1c0,1.6,1.3,2.9,2.9,2.9h73.9c1.6,0,2.9-1.3,2.9-2.9v-3.1c0-6.7-5.4-12.1-12.1-12.1h-12.5v-9.9
		l12.8,0.2c0,0,0,0,0.1,0c3.2,0,6.3-1.3,8.6-3.6l5.4-5.4l1.4,1.4c0.6,0.6,1.3,0.8,2,0.8c0.7,0,1.5-0.3,2-0.8l21-21
		C171.4,131.8,171.4,130,170.2,128.9z M151,93.1l4.6,4.6l-40,40c-0.9-2-2.3-3.9-3.9-5.3L151,93.1z M55.2,72.4
		c0-6.9,5.6-12.5,12.5-12.5c6.9,0,12.5,5.6,12.5,12.5c0,6.9-5.6,12.5-12.5,12.5C60.9,84.9,55.2,79.3,55.2,72.4z M109.6,78.1l2.5,7.8
		l-9.8,9.8l-7.8-2.6L109.6,78.1z M119.8,95.6l-8,8c-0.1,0.1-0.2,0.1-0.3,0l-4.5-4.5l8.2-8.2l4.5,4.5
		C119.9,95.4,119.9,95.6,119.8,95.6z M70.8,38.2c0.9,0,1.7,0.3,2.3,1l33.7,33.6L89.1,90.5l-6.9-6.8c2.4-3.1,3.9-7,3.9-11.2
		c0-10.1-8.2-18.3-18.3-18.3c-4.2,0-8.1,1.5-11.2,3.9c0,0-0.1-0.1-0.1-0.1l-1-1c-1.3-1.3-1.3-3.4,0-4.6l13.1-13.1
		C69.1,38.5,69.9,38.2,70.8,38.2z M49,27.6L60.4,39l-5.2,5.2L43.8,32.7L49,27.6z M33.6,30.3c-0.6-0.6-0.9-1.4-0.9-2.2
		c0-0.8,0.3-1.6,0.9-2.2l8.4-8.4c0.6-0.6,1.4-0.9,2.2-0.9s1.6,0.3,2.2,0.9c0.6,0.6,0.9,1.4,0.9,2.2c0,0.8-0.3,1.6-0.9,2.2l-8.4,8.4
		C36.9,31.5,34.9,31.5,33.6,30.3z M61.7,133.3c-7.2-9.1-11.1-20-11.1-31.7c0-6,1.1-11.9,3.1-17.5c2.8,3.3,6.8,5.6,11.2,6.3
		c-1.1,3.6-1.7,7.4-1.7,11.2c0,15.9,10,30.1,24.6,35.7c-0.9,2-1.5,4.2-1.5,6.5v6.4C76.8,147.3,68.1,141.3,61.7,133.3z M135.7,183.3
		v0.2H67.6v-0.2c0-3.5,2.9-6.4,6.4-6.4h55.4C132.9,177,135.7,179.8,135.7,183.3z M92.2,171.2V144c0-5.2,4.2-9.4,9.4-9.4
		c5.2,0,9.4,4.2,9.4,9.4v27.2H92.2z M147.2,147.9l-4.6-4.6l17-17l4.6,4.6L147.2,147.9z"/>
	<path id="XMLID_76_" class="st0" d="M67.8,75.3c1.6,0,2.9-1.3,2.9-2.9s-1.3-2.9-2.9-2.9h0c-1.6,0-2.9,1.3-2.9,2.9
		S66.2,75.3,67.8,75.3z"/>
	<path id="XMLID_75_" class="st0" d="M101.7,143.5c-0.8,0-1.5,0.3-2,0.8c-0.5,0.5-0.8,1.3-0.8,2c0,0.8,0.3,1.5,0.8,2
		c0.5,0.5,1.3,0.8,2,0.8c0.8,0,1.5-0.3,2-0.8c0.5-0.5,0.8-1.3,0.8-2c0-0.8-0.3-1.5-0.8-2C103.2,143.8,102.4,143.5,101.7,143.5z"/>
</g>
</svg>
