<?xml version="1.0" encoding="utf-8"?>
<!-- Generator: Adobe Illustrator 19.0.0, SVG Export Plug-In . SVG Version: 6.00 Build 0)  -->
<svg version="1.1" id="Capa_1" xmlns="http://www.w3.org/2000/svg" xmlns:xlink="http://www.w3.org/1999/xlink" x="0px" y="0px"
	 viewBox="-291 566 512 512" style="enable-background:new -291 566 512 512;" xml:space="preserve">
<style type="text/css">
	.st0{fill:#565F70;}
</style>
<path class="st0" d="M152.9,744.8c-9-22.1-3.2-47.9,14.5-64.2c0,0,0,0,0,0c-16.2-23.1-36.2-43.3-59.2-59.6c0,0-0.1,0.1-0.1,0.1
	c-15.5,17.1-43.3,23.5-64.7,14.5c-22.3-9.4-36.4-32-35.1-56.3c0-0.1,0-0.1,0-0.2c-13.9-2.5-28.3-3.7-42.9-3.7c-14,0-27.7,1.2-41,3.4
	c0,0,0,0,0,0c0.8,24.1-13.4,46.3-35.5,55.4c-21.2,8.7-48.8,2.4-64.2-14.6c0,0,0,0,0,0c-23.3,16.2-43.7,36.4-60.1,59.5
	c0,0,0.1,0.1,0.1,0.1c18.1,16.4,23.9,42.4,14.5,64.8c-9,21.3-31.1,35.1-56.5,35.1c0,0,0,0,0,0c-2.4,13.9-3.7,28.3-3.7,42.9
	c0,14.1,1.2,28,3.5,41.4c0.7,0.1,1.5,0.2,2.2,0.2c22.6-0.6,44.3,13.4,53.4,35.6c9.1,22.1,3.2,47.9-14.5,64.2c0,0,0,0,0,0
	c16.2,23.1,36.2,43.3,59.2,59.6c0,0,0.1-0.1,0.1-0.1c15.5-17.2,43.3-23.5,64.7-14.6c22.4,9.4,36.5,32,35.1,56.3c0,0.1,0,0.1,0,0.2
	c13.9,2.5,28.3,3.7,43,3.7c14,0,27.7-1.2,41-3.4c0,0,0,0,0,0c-0.9-24.1,13.4-46.3,35.5-55.3c21.4-8.7,48.8-2.3,64.3,14.6
	c0,0,0,0,0,0c23.3-16.2,43.7-36.4,60.1-59.5c0,0-0.1-0.1-0.1-0.1c-18.1-16.4-23.9-42.4-14.5-64.7c8.8-21.1,30.2-35.2,53.1-35.2
	l3.2,0.1c0.1,0,0.1,0,0.2,0c2.4-13.9,3.7-28.3,3.7-42.9c0-14.1-1.2-28-3.5-41.5c-0.6-0.1-1.2-0.1-1.8-0.1
	C182.9,780.4,161.7,766.4,152.9,744.8z M-34.2,909.1c-47.7,0-86.6-38.8-86.6-86.6c0-47.7,38.8-86.6,86.6-86.6
	c47.7,0,86.6,38.8,86.6,86.6C52.4,870.3,13.6,909.1-34.2,909.1z"/>
</svg>
