<?xml version="1.0" encoding="utf-8"?>
<!-- Generator: Adobe Illustrator 19.0.0, SVG Export Plug-In . SVG Version: 6.00 Build 0)  -->
<svg version="1.1" id="Layer_1" xmlns="http://www.w3.org/2000/svg" xmlns:xlink="http://www.w3.org/1999/xlink" x="0px" y="0px"
	 viewBox="0 0 200 200" style="enable-background:new 0 0 200 200;" xml:space="preserve">
<style type="text/css">
	.st0{fill:#3481C3;}
</style>
<path id="XMLID_86_" class="st0" d="M164.6,36.9c-17.3-17.3-40.2-26.8-64.6-26.8s-47.4,9.5-64.6,26.8S8.6,77.1,8.6,101.6
	s9.5,47.4,26.8,64.6S75.6,193,100,193s47.4-9.5,64.6-26.8s26.8-40.2,26.8-64.6S181.9,54.2,164.6,36.9z M185.5,101.7l-11.2-8.1
	l-9-28.4l4.3-13.3c10.3,14.4,15.9,31.6,15.9,49.7C185.5,101.6,185.5,101.7,185.5,101.7L185.5,101.7z M174.1,144.2h-17.3l-9.1-28
	l23.8-17.3l13.6,9.9C184.1,121.4,180.4,133.5,174.1,144.2L174.1,144.2z M127,164.9l-24-17.5v-14.5l25.2-18.3l13.8,3.3l9.2,28.3
	L127,164.9z M73,164.9l-24.1-19l9.1-28.1l13.7-3.3L97,132.9v14.5L73,164.9L73,164.9z M14.8,108.8l13.6-9.9l23.8,17.3l-9.1,28H25.9
	C19.6,133.5,15.9,121.4,14.8,108.8L14.8,108.8z M39.9,68h30.3l9.6,12.2l-9.2,28.5l-13.9,3.4L31.7,94L39.9,68z M84.2,35.8h31.7
	l9.2,28.5l-9.5,12.2H84.3l-9.5-12.1L84.2,35.8L84.2,35.8z M160,68l8.2,26l-24.9,18.1l-13.8-3.3l-9.3-28.6l9.4-12.1L160,68L160,68z
	 M100,127.7l-23.8-17.3l9.1-28h29.5l9.1,28L100,127.7L100,127.7z M165.2,46.3l-5.1,15.8h-29.5l-9.1-28l14.1-10.3
	c9.1,4.2,17.5,10,24.8,17.3C162.1,42.8,163.7,44.5,165.2,46.3z M129.2,21.2l-12,8.7H82.8l-12-8.7c9.2-3.3,19.1-5.1,29.2-5.1
	S120,17.8,129.2,21.2L129.2,21.2z M39.5,41.1c7.3-7.3,15.7-13.1,24.8-17.3l14.1,10.3l-9.1,28H39.9l-5.1-15.8
	C36.3,44.5,37.9,42.8,39.5,41.1z M30.4,51.9L34.6,65l-9,28.6l-11.2,8.1c0-0.1,0-0.1,0-0.2C14.5,83.5,20.1,66.3,30.4,51.9z
	 M29.6,150.2h15L70,170.1l4.2,13C61.3,179,49.4,171.9,39.5,162C35.9,158.3,32.6,154.4,29.6,150.2L29.6,150.2z M81,185l-4.9-15
	l23.8-17.3l23.8,17.3l-4.9,15c-6.2,1.4-12.5,2.1-19,2.1C93.5,187,87.2,186.3,81,185z M160.5,162c-9.9,9.9-21.7,17-34.7,21.1l4.2-13
	l25.7-19.9h14.6C167.4,154.4,164.1,158.3,160.5,162z"/>
</svg>
