<?xml version="1.0" encoding="utf-8"?>
<!-- Generator: Adobe Illustrator 19.0.0, SVG Export Plug-In . SVG Version: 6.00 Build 0)  -->
<svg version="1.1" id="Layer_1" xmlns="http://www.w3.org/2000/svg" xmlns:xlink="http://www.w3.org/1999/xlink" x="0px" y="0px"
	 viewBox="0 0 200 200" style="enable-background:new 0 0 200 200;" xml:space="preserve">
<style type="text/css">
	.st0{fill:#3481C3;}
</style>
<g id="XMLID_25_">
	<path id="XMLID_27_" class="st0" d="M190.7,154.9l-47.1-47.1c-1.1-1.1-3-1.1-4.1,0l-11.8,11.8l-4.1-4.1l30.9-30.9
		c1.1-1.1,1.1-3,0-4.1l-1.4-1.4l11.6-11.6c0.6-0.6,0.9-1.4,0.8-2.3L164.4,51c-0.2-2.1-1.4-4.8-2.9-6.3l-5.4-5.4
		c-1.5-1.5-4.1-2.7-6.3-2.9l-14.1-1.2c0,0,0,0-0.1,0c-0.1,0-0.1,0-0.2,0c0,0-0.1,0-0.1,0c-0.1,0-0.1,0-0.2,0c0,0-0.1,0-0.1,0
		c-0.1,0-0.1,0-0.2,0c0,0-0.1,0-0.1,0c-0.1,0-0.1,0-0.2,0.1c0,0-0.1,0-0.1,0c-0.1,0-0.1,0.1-0.2,0.1c0,0-0.1,0-0.1,0
		c-0.1,0-0.1,0.1-0.2,0.1c0,0,0,0-0.1,0c-0.1,0-0.1,0.1-0.2,0.1c0,0,0,0-0.1,0c-0.1,0.1-0.2,0.1-0.2,0.2l-11.6,11.6l-1.4-1.4
		c-1.1-1.1-3-1.1-4.1,0L85.4,77.1L81.3,73L93,61.3c1.1-1.1,1.1-3,0-4.1L45.9,10.1c-1.1-1.1-3-1.1-4.1,0L14.2,37.7
		c-1.1,1.1-1.1,3,0,4.1l47.1,47.1c0.6,0.6,1.3,0.8,2,0.8c0.7,0,1.5-0.3,2-0.8l11.8-11.8l4.1,4.1l-29.7,29.7c-1.1,1.1-1.1,3,0,4.1
		l10.3,10.3l-4.6,4.6c-10-7.2-21.9-11-34.4-11c-3.4,0-6.9,0.3-10.3,0.9c-1.1,0.2-1.9,1-2.3,2c-0.3,1,0,2.2,0.7,2.9l15.5,15.5
		L24,165.5c-0.1,0.9,0.2,1.7,0.8,2.3L33,176c0.5,0.5,1.3,0.8,2,0.8c0.1,0,0.2,0,0.3,0l25.2-2.6l15.5,15.5c0.6,0.6,1.3,0.8,2,0.8
		c0.3,0,0.6,0,0.9-0.1c1-0.3,1.8-1.2,2-2.3c2.7-15.1-0.7-30.5-9-43l4.9-4.9l8.9,8.9c0.6,0.6,1.3,0.8,2,0.8s1.5-0.3,2-0.8l29.7-29.7
		l4.1,4.1l-11.8,11.8c-1.1,1.1-1.1,3,0,4.1l47.1,47.1c0.6,0.6,1.3,0.8,2,0.8s1.5-0.3,2-0.8l27.6-27.6
		C191.9,157.8,191.9,156,190.7,154.9L190.7,154.9z M86.9,59.2l-5.1,5.1L62.3,44.9l5.1-5.1L86.9,59.2L86.9,59.2z M20.4,39.7l5.1-5.1
		l13.3,13.3c0.6,0.6,1.3,0.8,2,0.8s1.5-0.3,2-0.8c1.1-1.1,1.1-3,0-4.1L29.6,30.5l5.1-5.1L48,38.7c0.6,0.6,1.3,0.8,2,0.8
		s1.5-0.3,2-0.8c1.1-1.1,1.1-3,0-4.1L38.8,21.3l5.1-5.1l19.5,19.5l-7.2,7.2L47,52l-7.2,7.2L20.4,39.7L20.4,39.7z M63.4,82.7
		L43.9,63.3l5.1-5.1l19.5,19.5L63.4,82.7L63.4,82.7z M75.1,71c0,0-2.6,2.6-2.6,2.6L53.1,54.1l5.1-5.1l19.5,19.5L75.1,71L75.1,71z
		 M135.5,42.2l13.1,13.1c0.6,0.6,1.3,0.8,2,0.8s1.5-0.3,2-0.8c1.1-1.1,1.1-3,0-4.1l-9.6-9.6l6.2,0.5c0.8,0.1,2.1,0.7,2.7,1.2
		l5.4,5.4c0.5,0.5,1.2,1.9,1.2,2.7l1.1,12.8l-10.6,10.6l-23.2-23.2L135.5,42.2L135.5,42.2z M36.1,170.9l-6.2-6.2l2-19.1L55.3,169
		L36.1,170.9z M76,181.5l-56.7-56.7c1.2-0.1,2.4-0.1,3.5-0.1c12,0,23.5,4,32.8,11.3c0,0,0,0,0.1,0c1.7,1.3,3.3,2.7,4.8,4.3
		C71.4,151.2,77,166.3,76,181.5z M68.5,140.5c-1.2-1.5-2.5-2.9-3.9-4.3c-0.9-0.9-1.9-1.8-2.8-2.6l4.2-4.2l6.8,6.8L68.5,140.5
		L68.5,140.5z M87.8,143.1L57.7,113l60.6-60.6l30.1,30.1L87.8,143.1L87.8,143.1z M118,137.4l5.1-5.1l13.3,13.3
		c0.6,0.6,1.3,0.8,2,0.8c0.7,0,1.5-0.3,2-0.8c1.1-1.1,1.1-3,0-4.1l-13.3-13.3l2.6-2.6c0,0,2.6-2.6,2.6-2.6l13.3,13.3
		c0.6,0.6,1.3,0.8,2,0.8c0.7,0,1.5-0.3,2-0.8c1.1-1.1,1.1-3,0-4.1L136.5,119l5.1-5.1l19.5,19.5l-23.5,23.5L118,137.4L118,137.4z
		 M161.1,180.4L141.6,161l5.1-5.1l19.5,19.5L161.1,180.4z M170.3,171.2l-19.5-19.5l5.1-5.1l19.5,19.5L170.3,171.2z M179.5,162
		L160,142.6l5.1-5.1l19.5,19.5L179.5,162z"/>
	<path id="XMLID_26_" class="st0" d="M20.7,171.9c-1.1-1.1-3-1.1-4.1,0c-1.1,1.1-1.1,3,0,4.1l8.2,8.2c0.6,0.6,1.3,0.8,2,0.8
		s1.5-0.3,2-0.8c1.1-1.1,1.1-3,0-4.1L20.7,171.9z"/>
</g>
</svg>
